<?xml version="1.0" encoding="utf-8"?>
<!-- Generator: Adobe Illustrator 22.0.1, SVG Export Plug-In . SVG Version: 6.00 Build 0)  -->
<svg version="1.1" id="Layer_1" xmlns="http://www.w3.org/2000/svg" xmlns:xlink="http://www.w3.org/1999/xlink" x="0px" y="0px"
	 viewBox="0 0 40.7 44.7" style="enable-background:new 0 0 40.7 44.7;" xml:space="preserve">
<style type="text/css">
	.st0{fill:#333333;}
	.st1{filter:url(#Adobe_OpacityMaskFilter);}
	.st2{fill:url(#SVGID_2_);}
	.st3{opacity:0.5;mask:url(#SVGID_1_);fill:#333333;}
	.st4{filter:url(#Adobe_OpacityMaskFilter_1_);}
	.st5{fill:url(#SVGID_4_);}
	.st6{opacity:0.5;mask:url(#SVGID_3_);}
	.st7{filter:url(#Adobe_OpacityMaskFilter_2_);}
	.st8{fill:url(#SVGID_6_);}
	.st9{opacity:0.5;mask:url(#SVGID_5_);}
	.st10{filter:url(#Adobe_OpacityMaskFilter_3_);}
	.st11{fill:url(#SVGID_8_);}
	.st12{opacity:0.5;mask:url(#SVGID_7_);fill:#333333;}
	.st13{filter:url(#Adobe_OpacityMaskFilter_4_);}
	.st14{fill:url(#SVGID_10_);}
	.st15{opacity:0.5;mask:url(#SVGID_9_);}
	.st16{filter:url(#Adobe_OpacityMaskFilter_5_);}
	.st17{fill:url(#SVGID_12_);}
	.st18{opacity:0.5;mask:url(#SVGID_11_);}
	.st19{filter:url(#Adobe_OpacityMaskFilter_6_);}
	.st20{fill:url(#SVGID_14_);}
	.st21{opacity:0.5;mask:url(#SVGID_13_);}
	.st22{filter:url(#Adobe_OpacityMaskFilter_7_);}
	.st23{fill:url(#SVGID_16_);}
	.st24{opacity:0.5;mask:url(#SVGID_15_);}
	.st25{filter:url(#Adobe_OpacityMaskFilter_8_);}
	.st26{fill:url(#SVGID_18_);}
	.st27{opacity:0.5;mask:url(#SVGID_17_);}
	.st28{fill:#FFFFFF;}
	.st29{filter:url(#Adobe_OpacityMaskFilter_9_);}
	.st30{fill:url(#SVGID_20_);}
	.st31{opacity:0.5;mask:url(#SVGID_19_);}
	.st32{filter:url(#Adobe_OpacityMaskFilter_10_);}
	.st33{fill:url(#SVGID_22_);}
	.st34{opacity:0.5;mask:url(#SVGID_21_);}
	.st35{filter:url(#Adobe_OpacityMaskFilter_11_);}
	.st36{fill:url(#SVGID_24_);}
	.st37{opacity:0.5;mask:url(#SVGID_23_);}
	.st38{filter:url(#Adobe_OpacityMaskFilter_12_);}
	.st39{fill:url(#SVGID_26_);}
	.st40{opacity:0.5;mask:url(#SVGID_25_);}
	.st41{filter:url(#Adobe_OpacityMaskFilter_13_);}
	.st42{fill:url(#SVGID_28_);}
	.st43{opacity:0.5;mask:url(#SVGID_27_);}
</style>
<g>
	<g>
		<path class="st28" d="M37.4,19.4h-7.1h-7.1v7.2h-7.1h-2.6v17h2.6h21.3H40V19.4H37.4z M19.4,39.7h-2.2v-4.9h2.2V39.7z M19.4,32.5
			h-2.2v-4.9h2.2V32.5z M22.2,39.7h-2.2v-2.8h2.2V39.7z M22.2,36.3h-2.2v-1.5h2.2V36.3z M22.2,32.5h-2.2v-2.8h2.2V32.5z M22.2,29.1
			h-2.2v-1.5h2.2V29.1z M26.4,39.7h-2.2v-4.9h2.2V39.7z M26.4,32.5h-2.2v-4.9h2.2V32.5z M26.4,25.3h-2.2v-4.9h2.2V25.3z M29.2,39.7
			H27v-2.8h2.2V39.7z M29.2,36.3H27v-1.5h2.2V36.3z M29.2,32.5H27v-2.8h2.2V32.5z M29.2,29.1H27v-1.5h2.2V29.1z M29.2,25.3H27v-2.8
			h2.2V25.3z M29.2,21.9H27v-1.5h2.2V21.9z M33.5,39.7h-2.2v-4.9h2.2V39.7z M33.5,32.5h-2.2v-4.9h2.2V32.5z M33.5,25.3h-2.2v-4.9
			h2.2V25.3z M36.3,39.7h-2.2v-2.8h2.2V39.7z M36.3,36.3h-2.2v-1.5h2.2V36.3z M36.3,32.5h-2.2v-2.8h2.2V32.5z M36.3,29.1h-2.2v-1.5
			h2.2V29.1z M36.3,25.3h-2.2v-2.8h2.2V25.3z M36.3,21.9h-2.2v-1.5h2.2V21.9z"/>
		<path class="st28" d="M16.2,9.2h-4.9v4.7h3.4L16.2,9.2z M13.9,12.7h-1.5v-2.4h2.3L13.9,12.7z"/>
		<path class="st28" d="M10.5,41.3v-33h6.7v6h-0.1V15l0.3,0.5h0.3v0.3c0,0.1,0,0.1,0.1,0.1c0.2,0,0.4,0.2,0.4,0.4
			c0,0.1-0.1,0.2-0.1,0.3l-0.2-0.1c0,0,0,0-0.1,0l-0.2,0.1c0,0,0,0,0,0c0,0-0.1,0-0.1,0c0,0-0.1,0.1,0,0.1c0,0,0,0,0,0l-2.7,1.2
			h-0.4v7.2h7.1v-7.2h-0.4l-2.7-1.1c0.1-0.1,0.1-0.2,0.1-0.4c0-0.3-0.2-0.5-0.4-0.5v-0.2h0.2l0.3-0.5v-0.7h0v-6h3.4
			c0.2,0,0.3-0.1,0.3-0.2c0.1-0.1,0-0.3-0.1-0.4l-3.9-3.5c-0.1-0.1-0.2-0.1-0.2-0.1h-7.4V1c0-0.2-0.2-0.4-0.4-0.4H5.2
			C5,0.6,4.8,0.8,4.8,1v3.1H1.3c-0.2,0-0.4,0.2-0.4,0.4V8c0,0.2,0.2,0.4,0.4,0.4h3.5v33H3.3l-0.7,1v1.3h2.6h4.9h2.6v-1.3l-0.7-1
			H10.5z M17.8,16.5L17.8,16.5C17.8,16.5,17.8,16.5,17.8,16.5L17.8,16.5z M17.5,23.5h-2.2v-4.9h2.2V23.5z M20.3,23.5h-2.2v-2.8h2.2
			V23.5z M20.3,20.2h-2.2v-1.5h2.2V20.2z M20.5,17.7h-5.5l2.4-1.1c0.1,0.1,0.2,0.1,0.3,0.1c0.1,0,0.2,0,0.3-0.1L20.5,17.7z
			 M18.2,14.3h-0.8v-6h0.8V14.3z M18.3,5.3l2.6,2.3h-2.6V5.3z M17.5,4.9v2.3L15,4.9H17.5z M14.4,5.3l2.6,2.3h-2.6V5.3z M13.6,4.9
			v2.3l-2.6-2.3H13.6z M10.5,5.3L13,7.6h-2.6V5.3z M8.9,4.9L7.7,5.8L6.4,4.9H8.9z M6.4,4.1l1.3-0.9l1.3,0.9H6.4z M9.7,5.2v2l-1.4-1
			L9.7,5.2z M8.9,7.6H6.4l1.3-0.9L8.9,7.6z M9.7,8.7v2l-1.4-1L9.7,8.7z M8.9,8.4L7.7,9.3L6.4,8.4H8.9z M9.5,11.5l-1.8,1.3l-1.8-1.3
			l1.8-1.3L9.5,11.5z M9.7,12.2v2l-1.4-1L9.7,12.2z M9.5,15l-1.8,1.3L5.8,15l1.8-1.3L9.5,15z M9.7,15.7v2l-1.4-1L9.7,15.7z
			 M9.5,18.4l-1.8,1.3l-1.8-1.3l1.8-1.3L9.5,18.4z M9.7,19.2v2l-1.4-1L9.7,19.2z M9.7,22.1l-2.1,1.5l-2.1-1.5l2.1-1.5L9.7,22.1z
			 M9.7,23v0.5v1.5l-1.4-1L9.7,23z M9.5,25.8l-1.8,1.3l-1.8-1.3l1.8-1.3L9.5,25.8z M9.7,26.5v2l-1.4-1L9.7,26.5z M9.5,29.3l-1.8,1.3
			l-1.8-1.3L7.7,28L9.5,29.3z M9.7,30v2l-1.4-1L9.7,30z M9.5,32.8L7.7,34l-1.8-1.3l1.8-1.3L9.5,32.8z M9.7,33.5v2l-1.4-1L9.7,33.5z
			 M9.5,36.2l-1.8,1.3l-1.8-1.3L7.7,35L9.5,36.2z M9.7,37v2l-1.4-1L9.7,37z M9.5,39.7L7.7,41l-1.8-1.3l1.8-1.3L9.5,39.7z M9.7,40.5
			v0.8H8.5L9.7,40.5z M9.7,3.8l-1.4-1l1.4-1V3.8z M8.9,1.4L7.7,2.3L6.4,1.4H8.9z M5.6,1.7l1.4,1l-1.4,1V1.7z M5.6,5.2l1.4,1l-1.4,1
			V5.2z M5.6,8.7l1.4,1l-1.4,1V8.7z M5.6,12.2l1.4,1l-1.4,1V12.2z M5.6,15.7l1.4,1l-1.4,1V15.7z M5.6,20.7v-1.5l1.4,1l-1.4,1V20.7z
			 M5.6,23.6V23L7,24l-1.4,1V23.6z M5.6,26.5l1.4,1l-1.4,1V26.5z M5.6,30L7,31l-1.4,1V30z M5.6,33.5l1.4,1l-1.4,1V33.5z M5.6,37
			L7,38l-1.4,1V37z M1.7,7.6V5.3l2.6,2.3H1.7z M2.3,4.9h2.6v2.3L2.3,4.9z M5.6,40.5l1.2,0.8H5.6V40.5z"/>
	</g>
</g>
</svg>
