<svg id="Capa_1" data-name="Capa 1" xmlns="http://www.w3.org/2000/svg" viewBox="0 0 90.67 43"><defs><style>.cls-1,.cls-2{fill:#db9600;}.cls-1{stroke:#db9600;}.cls-1,.cls-2,.cls-4{stroke-miterlimit:10;}.cls-2{stroke:#fff;}.cls-3{fill:#5b5b5f;}.cls-4{fill:#727176;stroke:#727176;}.cls-5{fill:#fff;}</style></defs><title>LOGO_DBsvg</title><path id="_Trazado_" data-name="&lt;Trazado&gt;" class="cls-1" d="M88.3,23.65A17.28,17.28,0,0,1,71.11,41H53.92V23.65a17.19,17.19,0,1,1,34.38,0Z"/><path class="cls-2" d="M1.37,2.69H8a13.52,13.52,0,0,1,3.8.4,6.43,6.43,0,0,1,4.06,3.84,10.17,10.17,0,0,1,.62,3.79,9,9,0,0,1-.65,3.55,6.61,6.61,0,0,1-1.64,2.39A6.51,6.51,0,0,1,11.82,18a12.17,12.17,0,0,1-3.61.45H1.37ZM5,5.35V15.76H7.74a9.78,9.78,0,0,0,2.55-.24,3.16,3.16,0,0,0,1.29-.71,3.55,3.55,0,0,0,.83-1.51,9.11,9.11,0,0,0,.33-2.71,9,9,0,0,0-.34-2.75,3.36,3.36,0,0,0-1.05-1.59,3.74,3.74,0,0,0-1.73-.76,20.07,20.07,0,0,0-3-.14Z"/><path class="cls-2" d="M35.25,16.5l-2.1,2.33a12.17,12.17,0,0,1-3-1.81,7.4,7.4,0,0,1-2.37,1.28,9.56,9.56,0,0,1-2.88.39,7,7,0,0,1-4.83-1.42,4.21,4.21,0,0,1-1.57-3.17q0-3,4.11-4.82a5.27,5.27,0,0,1-1.85-3.45A2.87,2.87,0,0,1,22.2,3.37a6.36,6.36,0,0,1,3.66-.95,6.05,6.05,0,0,1,3.6,1A3,3,0,0,1,30.85,6a2.9,2.9,0,0,1-.69,1.87,9.06,9.06,0,0,1-2.57,1.89l2.48,2.89a7.53,7.53,0,0,0,.77-1.79l3.12.62a9.16,9.16,0,0,1-1.56,3.24,14.55,14.55,0,0,0,1.49,1A11.36,11.36,0,0,0,35.25,16.5ZM24.47,11.22a4.74,4.74,0,0,0-1.76,1.25A2.38,2.38,0,0,0,22.1,14a1.93,1.93,0,0,0,.76,1.6,3.06,3.06,0,0,0,1.94.59A5.48,5.48,0,0,0,28,15Zm1.37-3.27.93-.62q1-.7,1-1.37a1.21,1.21,0,0,0-.53-1,2.47,2.47,0,0,0-2.59,0,1,1,0,0,0-.49.84A2.18,2.18,0,0,0,25,7.09Z"/><path class="cls-2" d="M37.17,2.69H44.4a15.39,15.39,0,0,1,4.16.39,4.36,4.36,0,0,1,2,1.36,3.33,3.33,0,0,1,.83,2.21,3.28,3.28,0,0,1-.71,2.05,4.2,4.2,0,0,1-1.84,1.36,5,5,0,0,1,2.51,1.4,3.42,3.42,0,0,1,.91,2.4,4,4,0,0,1-1.16,2.9,4.94,4.94,0,0,1-2.73,1.46,39.43,39.43,0,0,1-5.09.19H37.17ZM40.8,5.31V8.95h2.4q2.16,0,2.67-.05a2.63,2.63,0,0,0,1.46-.56,1.56,1.56,0,0,0,.53-1.24A1.54,1.54,0,0,0,47.43,6a1.88,1.88,0,0,0-1-.54,30.86,30.86,0,0,0-3.49-.11Zm0,6.26v4.2h3.39A14.72,14.72,0,0,0,47,15.6a2.09,2.09,0,0,0,1.06-.65,2,2,0,0,0,0-2.5,2.39,2.39,0,0,0-1.22-.69,16.11,16.11,0,0,0-3.11-.19Z"/><path class="cls-3" d="M1.44,19.37h5.3v.8H2.27V23.5H6.43v.8H2.27v4.45H1.44Z"/><path class="cls-3" d="M8.39,19.37h.82V28h4.12v.8H8.39Z"/><path class="cls-3" d="M14.07,24.06a5.59,5.59,0,0,1,.34-2,4.75,4.75,0,0,1,.94-1.56,4.25,4.25,0,0,1,1.44-1,4.82,4.82,0,0,1,3.71,0,4.25,4.25,0,0,1,1.44,1,4.74,4.74,0,0,1,.94,1.56,6,6,0,0,1,0,4,4.73,4.73,0,0,1-.94,1.56,4.17,4.17,0,0,1-1.44,1,4.91,4.91,0,0,1-3.71,0,4.17,4.17,0,0,1-1.44-1A4.73,4.73,0,0,1,14.4,26,5.65,5.65,0,0,1,14.07,24.06Zm.82,0a4.93,4.93,0,0,0,.26,1.63A3.92,3.92,0,0,0,15.9,27a3.47,3.47,0,0,0,1.18.87,4,4,0,0,0,3.11,0A3.47,3.47,0,0,0,21.38,27a3.92,3.92,0,0,0,.75-1.31,5.2,5.2,0,0,0,0-3.26,3.92,3.92,0,0,0-.75-1.31,3.47,3.47,0,0,0-1.18-.87,4,4,0,0,0-3.11,0,3.47,3.47,0,0,0-1.18.87,3.92,3.92,0,0,0-.75,1.31A4.93,4.93,0,0,0,14.89,24.06Z"/><path class="cls-3" d="M25.06,19.37h2.8a4.62,4.62,0,0,1,.65.08,3.83,3.83,0,0,1,.71.21,2,2,0,0,1,.65.42,2.2,2.2,0,0,1,.47.7,2.55,2.55,0,0,1,.19,1,2.49,2.49,0,0,1-.22,1.11,2.14,2.14,0,0,1-.55.71,2.27,2.27,0,0,1-.73.4,4.48,4.48,0,0,1-.76.19l2.57,4.51h-.94L27.42,24.3H25.89v4.45h-.82Zm.82,4.14h1.75a2.73,2.73,0,0,0,1.06-.17,1.74,1.74,0,0,0,.63-.42,1.36,1.36,0,0,0,.31-.54,1.77,1.77,0,0,0,0-1.06,1.36,1.36,0,0,0-.31-.54,1.75,1.75,0,0,0-.63-.42,2.74,2.74,0,0,0-1.06-.17H25.89Z"/><path class="cls-3" d="M32.47,19.37h.82v9.38h-.82Z"/><path class="cls-3" d="M35.61,19.37h2.74a5.6,5.6,0,0,1,1.95.3,4.27,4.27,0,0,1,1.33.76,3.74,3.74,0,0,1,.84,1,5.2,5.2,0,0,1,.45,1.08,5.31,5.31,0,0,1,.18.93q0,.42,0,.59t0,.59a5.3,5.3,0,0,1-.18.93,5.19,5.19,0,0,1-.45,1.08,3.73,3.73,0,0,1-.84,1,4.26,4.26,0,0,1-1.33.76,5.6,5.6,0,0,1-1.95.3H35.61ZM36.43,28h1.7a5.6,5.6,0,0,0,1.64-.23A3.67,3.67,0,0,0,41.1,27,3.32,3.32,0,0,0,42,25.8a4.84,4.84,0,0,0,0-3.49,3.32,3.32,0,0,0-.89-1.21,3.68,3.68,0,0,0-1.32-.71,5.6,5.6,0,0,0-1.64-.23h-1.7Z"/><path class="cls-3" d="M47.69,19.37h.85l3.72,9.38h-.92l-1-2.49H45.69l-1,2.49h-.86Zm.39,1L46,25.47h4.06Z"/><rect class="cls-4" x="1.5" y="29.71" width="50.87" height="11.32"/><path class="cls-5" d="M6.47,33.68a1.18,1.18,0,0,0-.55-.37,2,2,0,0,0-.65-.12,1.74,1.74,0,0,0-.37,0,1.44,1.44,0,0,0-.36.13.78.78,0,0,0-.28.24.64.64,0,0,0,.15.87,2.42,2.42,0,0,0,.64.3l.83.25a3.47,3.47,0,0,1,.83.36,2,2,0,0,1,.64.62,1.86,1.86,0,0,1,.25,1,2.35,2.35,0,0,1-.23,1.08,2.19,2.19,0,0,1-.63.76,2.7,2.7,0,0,1-.92.45,4.12,4.12,0,0,1-1.11.15,4.08,4.08,0,0,1-1.36-.22,3.41,3.41,0,0,1-1.17-.71l1.18-1.27a1.71,1.71,0,0,0,.64.52,1.83,1.83,0,0,0,1.21.14,1.34,1.34,0,0,0,.37-.14.8.8,0,0,0,.27-.24.59.59,0,0,0,.1-.34.62.62,0,0,0-.26-.53A2.41,2.41,0,0,0,5,36.33l-.85-.27a3.84,3.84,0,0,1-.85-.37,2,2,0,0,1-.65-.61,1.71,1.71,0,0,1-.26-1,2.19,2.19,0,0,1,.24-1,2.28,2.28,0,0,1,.64-.75,2.79,2.79,0,0,1,.92-.45,3.82,3.82,0,0,1,1.07-.15,4.28,4.28,0,0,1,1.23.18,2.85,2.85,0,0,1,1.07.6Z"/><path class="cls-5" d="M8.91,31.88H14v1.5H10.57v1.38h3.26v1.5H10.57v1.5h3.64v1.5H8.91Z"/><path class="cls-5" d="M15.54,31.88h2.91a5.21,5.21,0,0,1,1.09.11,2.61,2.61,0,0,1,.9.37,1.83,1.83,0,0,1,.62.69,2.31,2.31,0,0,1,.23,1.08,2.15,2.15,0,0,1-.41,1.33,1.87,1.87,0,0,1-1.21.69l1.91,3.12h-2l-1.57-3h-.82v3H15.54Zm1.66,3.06h1l.47,0a1.5,1.5,0,0,0,.45-.09.78.78,0,0,0,.33-.25.74.74,0,0,0,.13-.47.72.72,0,0,0-.41-.71,1.33,1.33,0,0,0-.41-.12,3.43,3.43,0,0,0-.46,0H17.19Z"/><path class="cls-5" d="M21.67,31.88h1.89l1.86,4.85h0l1.89-4.85H29.1L26,39.27H24.67Z"/><path class="cls-5" d="M29.87,31.88h1.66v7.4H29.87Z"/><path class="cls-5" d="M37.94,33.8a1.62,1.62,0,0,0-.6-.45,2,2,0,0,0-.82-.16,2.1,2.1,0,0,0-.87.18,2.07,2.07,0,0,0-.69.5,2.31,2.31,0,0,0-.46.76,2.85,2.85,0,0,0,0,1.91,2.37,2.37,0,0,0,.45.75,2,2,0,0,0,.67.5,2,2,0,0,0,.83.18,1.89,1.89,0,0,0,.9-.21,1.78,1.78,0,0,0,.65-.59l1.38,1a2.87,2.87,0,0,1-1.21,1,3.8,3.8,0,0,1-1.51.31,4.7,4.7,0,0,1-1.62-.27,3.72,3.72,0,0,1-1.28-.78,3.53,3.53,0,0,1-.84-1.23,4.43,4.43,0,0,1,0-3.22,3.53,3.53,0,0,1,.84-1.23A3.73,3.73,0,0,1,35.06,32a4.69,4.69,0,0,1,1.62-.27,4.05,4.05,0,0,1,.66.06,3.63,3.63,0,0,1,.68.18,3,3,0,0,1,.64.33,2.55,2.55,0,0,1,.55.51Z"/><path class="cls-5" d="M40.36,31.88h5.11v1.5H42v1.38h3.26v1.5H42v1.5h3.64v1.5h-5.3Z"/><path class="cls-5" d="M50.7,33.68a1.18,1.18,0,0,0-.55-.37,2,2,0,0,0-.65-.12,1.74,1.74,0,0,0-.37,0,1.44,1.44,0,0,0-.36.13.78.78,0,0,0-.28.24.64.64,0,0,0,.15.87,2.42,2.42,0,0,0,.64.3l.83.25a3.47,3.47,0,0,1,.83.36,2,2,0,0,1,.64.62,1.86,1.86,0,0,1,.25,1,2.35,2.35,0,0,1-.23,1.08,2.19,2.19,0,0,1-.63.76,2.7,2.7,0,0,1-.92.45,4.3,4.3,0,0,1-2.47-.07,3.41,3.41,0,0,1-1.17-.71l1.18-1.27a1.71,1.71,0,0,0,.64.52,1.83,1.83,0,0,0,1.21.14,1.34,1.34,0,0,0,.37-.14.8.8,0,0,0,.27-.24.59.59,0,0,0,.1-.34.62.62,0,0,0-.26-.53,2.41,2.41,0,0,0-.65-.33l-.85-.27a3.84,3.84,0,0,1-.85-.37,2,2,0,0,1-.65-.61,1.71,1.71,0,0,1-.26-1,2.19,2.19,0,0,1,.24-1,2.28,2.28,0,0,1,.64-.75,2.79,2.79,0,0,1,.92-.45,3.82,3.82,0,0,1,1.07-.15,4.28,4.28,0,0,1,1.23.18,2.85,2.85,0,0,1,1.07.6Z"/><g id="_Grupo_" data-name="&lt;Grupo&gt;"><path id="_Trazado_2" data-name="&lt;Trazado&gt;" class="cls-5" d="M65.3,28.08a2.35,2.35,0,0,1,1.08-.56,2.07,2.07,0,0,1,.61-1A2.35,2.35,0,0,1,68.06,26a2.07,2.07,0,0,1,.61-1,2.35,2.35,0,0,1,1.08-.56,2,2,0,0,1,.08-.23A2.28,2.28,0,0,1,68.89,23L60.26,31a2.15,2.15,0,0,0,0,3.22,2.62,2.62,0,0,0,3.49,0l2.47-2.27-.92-.85A2,2,0,0,1,65.3,28.08Z"/><path id="_Trazado_3" data-name="&lt;Trazado&gt;" class="cls-5" d="M84,19.61l-2.75-2.53.19-.17a.6.6,0,0,0,0-.9L80,14.7a.74.74,0,0,0-1,0l-.19.18-.23-.22a1.53,1.53,0,0,0-.81-.38l-5.26-.78a1.55,1.55,0,0,0-1.27.38l-.61.56a.6.6,0,0,0,0,.9l3.29,3-1.28,1.18a4.1,4.1,0,0,1,.59,1.16l.32,1a2.09,2.09,0,0,1-.14,1.6l.16.12.92.85,2.93-2.69,2.2,2a.74.74,0,0,0,1,0L84,20.51A.6.6,0,0,0,84,19.61Z"/><path id="_Trazado_4" data-name="&lt;Trazado&gt;" class="cls-5" d="M59.59,24.38l3.14,2.89h0l5.43-5h0l1.07-1a.71.71,0,0,1,.39.42l.32,1a1.37,1.37,0,0,0,1.67.84A1.23,1.23,0,0,0,72.52,22l-.32-1a3.4,3.4,0,0,0-3.3-2.28c-.19,0-3,.17-3.2.18L63.84,17.2a1.59,1.59,0,0,0-2.11,0L57.81,20.8a1.3,1.3,0,0,0,0,1.94l1.78,1.63Z"/><path id="_Trazado_5" data-name="&lt;Trazado&gt;" class="cls-5" d="M72.82,24.15l-.06,0a1.26,1.26,0,0,0-1.62,0,1,1,0,0,0,0,1.55,1.26,1.26,0,0,0-1.68,0,1,1,0,0,0,0,1.55,1.27,1.27,0,0,0-1.68,0,1,1,0,0,0,0,1.55,1.26,1.26,0,0,0-1.68,0,1,1,0,0,0,0,1.55L68.92,33a1.27,1.27,0,0,0,1.68,0,1,1,0,0,0,0-1.55,1.27,1.27,0,0,0,1.68,0,1,1,0,0,0,0-1.55,1.27,1.27,0,0,0,1.68,0,1,1,0,0,0,0-1.55,1.27,1.27,0,0,0,1.68,0,1,1,0,0,0,0-1.55Z"/></g></svg>